<?xml version="1.0" encoding="UTF-8" standalone="no"?><!DOCTYPE svg PUBLIC "-//W3C//DTD SVG 1.1//EN" "http://www.w3.org/Graphics/SVG/1.1/DTD/svg11.dtd"><svg width="100%" height="100%" viewBox="0 0 500 500" version="1.1" xmlns="http://www.w3.org/2000/svg" xmlns:xlink="http://www.w3.org/1999/xlink" xml:space="preserve" xmlns:serif="http://www.serif.com/" style="fill-rule:evenodd;clip-rule:evenodd;stroke-linejoin:round;stroke-miterlimit:2;"><g id="triangle"><path d="M264.065,182.49l-30.305,52.489l60.61,0l-30.305,-52.489Z" style="fill:#fc2d63;"/><path d="M324.674,182.49l-30.304,52.489l60.609,0l-30.305,-52.489Z" style="fill:#d3cabd;"/><path d="M294.37,130l-30.305,52.49l60.609,-0l-30.304,-52.49Z" style="fill:#d3cabd;"/><path d="M415.589,130l-60.61,104.979l121.22,0l-60.61,-104.979Z" style="fill:#1cd9d6;"/><path d="M354.979,25.021l-60.609,104.979l121.219,0l-60.61,-104.979Z" style="fill:#1cd9d6;"/></g><path id="frame" d="M500,500l-500,-0l-0,-500l500,0l0,500Zm-10,-490l-480,-0l-0,480l480,0l0,-480Z" style="fill:#fefffe;"/><path id="A" d="M250,474.979l104.979,-209.958l104.98,209.958l-11.181,0l-50,-100c-15.883,0 -87.598,0 -87.598,0l-50,100l-11.18,0Zm143.778,-110l-38.799,-77.598l-38.799,77.598l77.598,0Z" style="fill:#fefffe;"/><path id="C" d="M212.542,437.175l7.071,7.071c-40.978,40.978 -107.515,40.978 -148.493,0c-40.977,-40.977 -40.977,-107.515 0,-148.492c40.978,-40.978 107.515,-40.978 148.493,-0l-7.071,7.071c-37.075,-37.075 -97.276,-37.075 -134.351,-0c-37.075,37.075 -37.075,97.275 0,134.35c37.075,37.075 97.276,37.075 134.351,0Z" style="fill:#fefffe;"/><path id="B" d="M160,235l-115,0l0,-210l115,-0c30.355,-0 55,24.645 55,55c-0,22.174 -13.15,41.301 -32.071,50c18.921,8.699 32.071,27.826 32.071,50c0,30.355 -24.645,55 -55,55Zm-105,-110l105,0c24.836,0 45,-20.164 45,-45c-0,-24.836 -20.164,-45 -45,-45c0,0 -105,0 -105,-0l0,90Zm105,10l-105,0l0,90l105,0c24.836,0 45,-20.164 45,-45c-0,-24.836 -20.164,-45 -45,-45Z" style="fill:#fefffe;"/><path id="_2" serif:id="2" d="M469.251,65.542l-14.084,14.084l21.032,-0l0,10l-45.174,-0l31.155,-31.156c5.362,-5.361 5.362,-14.067 -0,-19.429c-2.706,-2.705 -6.263,-4.045 -9.812,-4.02c-2.343,0.016 -4.683,0.626 -6.772,1.832c-1.018,0.588 -1.975,1.318 -2.846,2.188c-2.681,2.681 -4.02,6.198 -4.02,9.715l-10,-0c-0,-6.077 2.317,-12.154 6.949,-16.786c1.503,-1.503 3.158,-2.761 4.916,-3.776c3.611,-2.086 7.654,-3.145 11.704,-3.173c6.132,-0.043 12.277,2.274 16.952,6.949c9.264,9.264 9.264,24.307 -0,33.572Z" style="fill:#fc2d63;"/></svg>